<svg width="32" height="32" viewBox="0 0 32 32" fill="none" xmlns="http://www.w3.org/2000/svg">
<g clip-path="url(#clip0_981_3705)">
<path d="M23.0276 0.383647L21.2047 11.8354C21.1949 11.8972 21.168 11.9548 21.1272 12.0017C21.0863 12.0486 21.0331 12.0828 20.9738 12.1003C20.9145 12.1178 20.8515 12.1179 20.7922 12.1006C20.7328 12.0833 20.6796 12.0493 20.6385 12.0026L15.2654 5.87142C15.2353 5.83696 15.2127 5.79653 15.1989 5.75271C15.1852 5.70889 15.1807 5.66265 15.1856 5.61695C15.1906 5.57125 15.2049 5.52711 15.2276 5.48733C15.2504 5.44755 15.2811 5.413 15.3178 5.38592L22.5178 0.0639611C22.5701 0.0251622 22.6326 0.00299661 22.6973 0.000282927C22.7621 -0.00243075 22.8261 0.0144261 22.8814 0.0487196C22.9366 0.0830131 22.9806 0.133186 23.0075 0.192835C23.0345 0.252485 23.0434 0.318909 23.0329 0.383647H23.0276ZM8.74028 0.86518L16.298 9.48088C16.339 9.52762 16.366 9.58517 16.376 9.64683C16.3859 9.7085 16.3783 9.77176 16.3542 9.82926C16.33 9.88677 16.2903 9.93614 16.2396 9.97168C16.1888 10.0072 16.1291 10.0275 16.0674 10.0301L8.5096 10.3603C8.46559 10.3621 8.42168 10.3549 8.3805 10.3391C8.33931 10.3234 8.30168 10.2993 8.26987 10.2685C8.23806 10.2377 8.21276 10.2007 8.1954 10.1597C8.17805 10.1187 8.16899 10.0746 8.16885 10.0301V1.08538C8.16842 1.01807 8.18831 0.952221 8.22588 0.896675C8.26345 0.841129 8.3169 0.798533 8.37906 0.774582C8.44121 0.75063 8.50912 0.746468 8.57367 0.76266C8.63822 0.778851 8.69637 0.814625 8.74028 0.86518ZM0.313527 12.3342L11.4386 11.8487C11.501 11.8451 11.5631 11.8596 11.6175 11.8907C11.672 11.9217 11.7165 11.9679 11.7458 12.0238C11.775 12.0797 11.7877 12.1429 11.7826 12.2059C11.7774 12.2689 11.7545 12.3291 11.7165 12.3793L7.48871 18.2252C7.46298 18.2608 7.43047 18.2908 7.39312 18.3134C7.35577 18.3361 7.31433 18.3509 7.27122 18.3571C7.22811 18.3633 7.18422 18.3607 7.14212 18.3494C7.10002 18.3382 7.06053 18.3185 7.02606 18.2916L0.128755 12.9298C0.0752574 12.8886 0.0356753 12.8317 0.0153314 12.7669C-0.0050125 12.702 -0.00512767 12.6324 0.0150914 12.5675C0.0353106 12.5027 0.0748568 12.4457 0.128275 12.4044C0.181693 12.3631 0.246367 12.3395 0.313527 12.3369V12.3342ZM3.93587 25.8673L10.1701 17.245C10.2064 17.1949 10.2559 17.1562 10.313 17.1333C10.3701 17.1104 10.4324 17.1043 10.4927 17.1157C10.5531 17.127 10.6091 17.1554 10.6542 17.1975C10.6994 17.2396 10.7319 17.2938 10.748 17.3537L12.4831 23.786C12.4944 23.8279 12.4975 23.8716 12.492 23.9147C12.4866 23.9578 12.473 23.9994 12.4517 24.0371C12.4304 24.0748 12.4019 24.1079 12.3679 24.1344C12.334 24.161 12.2952 24.1805 12.2538 24.1919L4.28446 26.3807C4.21927 26.3984 4.15024 26.3953 4.08689 26.3716C4.02354 26.348 3.96899 26.3051 3.93075 26.2488C3.89251 26.1925 3.87249 26.1255 3.8734 26.0572C3.87432 25.9889 3.89614 25.9225 3.93587 25.8673ZM16.2888 31.761L13.4647 21.2908C13.4484 21.2307 13.4493 21.1671 13.4672 21.1074C13.4851 21.0477 13.5193 20.9944 13.566 20.9535C13.6126 20.9127 13.6696 20.8861 13.7306 20.8768C13.7915 20.8675 13.8538 20.8758 13.9102 20.9008L20.244 23.6865C20.284 23.7042 20.3202 23.7297 20.3502 23.7617C20.3803 23.7936 20.4038 23.8313 20.4193 23.8726C20.4348 23.9139 20.442 23.9579 20.4405 24.002C20.439 24.0461 20.4288 24.0895 20.4105 24.1296L16.8996 31.8087C16.8714 31.8701 16.8254 31.9213 16.7676 31.9553C16.7098 31.9893 16.643 32.0045 16.5764 31.9989C16.5098 31.9932 16.4464 31.967 16.395 31.9237C16.3436 31.8805 16.3065 31.8223 16.2888 31.757V31.761ZM28.8503 25.7201L18.8903 21.3306C18.8346 21.3058 18.7868 21.2658 18.7524 21.2149C18.718 21.1641 18.6983 21.1046 18.6956 21.0431C18.6929 20.9815 18.7072 20.9204 18.737 20.8667C18.7667 20.813 18.8108 20.7687 18.8641 20.739L25.2857 17.168C25.3252 17.1463 25.3687 17.133 25.4135 17.129C25.4583 17.125 25.5035 17.1304 25.5461 17.1448C25.5888 17.1592 25.628 17.1824 25.6615 17.2129C25.6949 17.2433 25.7218 17.2805 25.7404 17.3219L29.2788 25.281C29.3055 25.3419 29.3133 25.4095 29.3015 25.475C29.2896 25.5405 29.2585 25.6009 29.2123 25.6482C29.1661 25.6956 29.1068 25.7278 29.0422 25.7406C28.9777 25.7534 28.9108 25.7463 28.8503 25.7201ZM22.0827 16.4955L23.1836 9.57771C23.1914 9.53374 23.2078 9.49182 23.232 9.45446C23.2562 9.4171 23.2876 9.38508 23.3243 9.3603C23.361 9.33552 23.4023 9.31851 23.4457 9.31029C23.4891 9.30206 23.5336 9.30278 23.5767 9.31241L31.7413 11.0767C31.8065 11.0907 31.8659 11.1245 31.9115 11.1737C31.9571 11.2228 31.9868 11.285 31.9965 11.3517C32.0062 11.4185 31.9955 11.4866 31.9658 11.547C31.9361 11.6074 31.8888 11.6571 31.8304 11.6895L22.565 16.8443C22.5113 16.8737 22.4507 16.8873 22.3898 16.8837C22.3289 16.88 22.2702 16.8593 22.2204 16.8237C22.1705 16.7881 22.1314 16.7392 22.1076 16.6824C22.0837 16.6255 22.0761 16.5631 22.0853 16.5021" fill="url(#paint0_linear_981_3705)"/>
</g>
<defs>
<linearGradient id="paint0_linear_981_3705" x1="31.9444" y1="0.336839" x2="-3.32849" y2="4.62574" gradientUnits="userSpaceOnUse">
<stop stop-color="#01A6C7"/>
<stop offset="0.295578" stop-color="#4C69FF"/>
<stop offset="1" stop-color="#011FBB"/>
</linearGradient>
<clipPath id="clip0_981_3705">
<rect width="32" height="32" fill="white"/>
</clipPath>
</defs>
</svg>
